<?xml version="1.0" encoding="UTF-8"?>
<svg version="1.1" xmlns="http://www.w3.org/2000/svg" width="1024" height="1024">
<path d="M0 0 C337.92 0 675.84 0 1024 0 C1024 337.92 1024 675.84 1024 1024 C686.08 1024 348.16 1024 0 1024 C0 686.08 0 348.16 0 0 Z " fill="#E8E8E0" transform="translate(0,0)"/>
<path d="M0 0 C1.02366551 -0.00445784 2.04733101 -0.00891569 3.10201669 -0.01350862 C4.22495621 -0.01332426 5.34789574 -0.01313989 6.50486374 -0.01294994 C7.69911775 -0.01662663 8.89337177 -0.02030332 10.1238153 -0.02409142 C13.44000797 -0.03321038 16.75615119 -0.03782621 20.07235169 -0.04048073 C23.64848107 -0.04438737 27.22459616 -0.05396536 30.8007164 -0.0626936 C39.43690353 -0.08244635 48.0730918 -0.09252205 56.70929587 -0.10142139 C60.77672949 -0.10580565 64.8441618 -0.11117205 68.91159439 -0.11641026 C82.43294759 -0.13342025 95.95429998 -0.14791485 109.47566223 -0.155159 C112.98366675 -0.15706887 116.49167126 -0.15898921 119.99967575 -0.16094494 C121.30751021 -0.16167055 121.30751021 -0.16167055 122.64176556 -0.16241082 C136.76874084 -0.17071281 150.89563149 -0.19605358 165.02256981 -0.22852562 C179.52757595 -0.26159483 194.03253907 -0.27960757 208.53758311 -0.28280324 C216.68120241 -0.28496831 224.82469824 -0.29371664 232.96828079 -0.31926441 C239.90291371 -0.34096942 246.83739316 -0.3490228 253.77205619 -0.33929763 C257.30931052 -0.33475249 260.84624818 -0.33665117 264.38345909 -0.35605907 C268.22101509 -0.37693285 272.0581348 -0.36670688 275.89573288 -0.35352612 C277.00974952 -0.36449536 278.12376616 -0.37546461 279.27154088 -0.38676625 C285.65980939 -0.33375665 290.66236723 0.35858465 295.95426559 4.13422108 C299.777735 8.24445068 300.34647579 11.33135044 300.24430466 16.69696522 C299.74577999 20.88616702 297.99569564 24.29413705 296.07926559 28.00922108 C295.67506393 28.82584217 295.27086227 29.64246326 294.85441208 30.48383045 C293.57654507 33.04594522 292.27057794 35.59166759 290.95426559 38.13422108 C290.54289352 38.93247303 290.13152145 39.73072498 289.70768356 40.55316639 C287.25042834 45.30327266 284.7492487 50.029013 282.22916794 54.74603748 C280.08375821 58.76488044 277.95575505 62.79284429 275.82926559 66.82172108 C275.27251144 67.86972889 275.27251144 67.86972889 274.70450974 68.93890858 C270.65501243 76.60337407 266.81631405 84.37428765 262.95426559 92.13422108 C243.61644008 130.96601734 243.61644008 130.96601734 237.53116989 142.33392811 C234.1672583 148.64665206 230.99329465 155.05105087 227.81653976 161.45929432 C211.10243121 195.12027233 211.10243121 195.12027233 202.95426559 199.13422108 C201.54640494 199.8978268 201.54640494 199.8978268 200.11010265 200.6768589 C194.72038545 202.95284431 189.09982628 202.53740325 183.34368515 202.49498463 C182.07180294 202.4975479 180.79992074 202.50011118 179.48949665 202.50275213 C175.97072081 202.50944291 172.45222022 202.49748405 168.93347943 202.48241794 C165.13465792 202.46944141 161.33585145 202.47384818 157.53701401 202.47612476 C150.95911175 202.47769648 144.38129889 202.46829795 137.80341911 202.45141125 C128.29296816 202.42701198 118.78256035 202.41921503 109.27208149 202.41544727 C93.84132995 202.40888425 78.41062604 202.38892711 62.97990036 202.36053944 C47.99194705 202.33299502 33.00400669 202.31176331 18.01603317 202.299016 C17.09190361 202.29822783 16.16777404 202.29743966 15.21564055 202.2966276 C10.57947299 202.29271244 5.94330533 202.28892133 1.30713761 202.28519189 C-37.14385307 202.25410062 -75.59479059 202.20126886 -114.04573441 202.13422108 C-113.33494484 198.24365017 -112.26973828 195.28700429 -110.40852737 191.783391 C-109.8568187 190.73452213 -109.30511002 189.68565327 -108.73668289 188.6050005 C-107.8339212 186.90823421 -107.8339212 186.90823421 -106.91292191 185.17718983 C-105.62498134 182.73042629 -104.34250927 180.28081264 -103.06038284 177.83099842 C-102.72888544 177.19871106 -102.39738804 176.5664237 -102.05584526 175.91497612 C-98.49423251 169.10831143 -95.04691151 162.2457704 -91.61604691 155.37250233 C-91.31003304 154.76000504 -91.00401917 154.14750774 -90.68873215 153.51644993 C-88.82595365 149.78756805 -86.96613977 146.05721549 -85.10744095 142.32629871 C-83.53108578 139.16321424 -81.95237302 136.00130692 -80.37385941 132.8392992 C-77.97074431 128.02490414 -75.56878169 123.20993672 -73.16780472 118.39447498 C-70.05490618 112.15156128 -66.93740861 105.91096791 -63.81502151 99.6727953 C-62.61008478 97.26292182 -61.40746276 94.85202992 -60.20808792 92.43939686 C-56.29996369 84.58603301 -52.33259762 76.76455069 -48.33089066 68.95843983 C-47.8260112 67.97320332 -47.32113174 66.9879668 -46.80095291 65.97287464 C-44.71539275 61.90411285 -42.62939685 57.83558354 -40.53914261 53.76923084 C-34.8331104 42.66490147 -29.17549928 31.55737004 -23.96127701 20.21153736 C-20.40322333 12.53379134 -16.81462477 5.13782102 -9.04573441 1.13422108 C-5.97955746 0.18028416 -3.20328387 0.00647957 0 0 Z " fill="#D9490D" transform="translate(425.0457344055176,533.8657789230347)"/>
<path d="M0 0 C53.70155404 -0.08060607 53.70155404 -0.08060607 76.3203125 -0.09765625 C91.8968234 -0.10949271 107.47331255 -0.1233569 123.04980469 -0.15087891 C134.39743394 -0.17091927 145.74504544 -0.1837415 157.0926919 -0.18817699 C163.09173947 -0.19076648 169.09073628 -0.19677939 175.08976746 -0.21146011 C180.7564972 -0.22521297 186.42315612 -0.22918758 192.08990097 -0.22621536 C194.15034752 -0.22675773 196.21079687 -0.23062827 198.27122879 -0.23841095 C217.57637383 -0.30764486 237.11664396 0.29168983 256 4.625 C257.74470581 5.01631104 257.74470581 5.01631104 259.5246582 5.41552734 C285.69464969 11.5009094 310.94721401 21.46690687 333 37 C333.90492188 37.61488281 334.80984375 38.22976563 335.7421875 38.86328125 C338.18915109 40.54045538 340.6014348 42.25446882 343 44 C343.7115625 44.51691406 344.423125 45.03382813 345.15625 45.56640625 C351.66490402 50.4596878 357.58755489 55.97550677 363.49121094 61.5703125 C364.80329162 62.81360449 366.12359379 64.0482089 367.4453125 65.28125 C374.03301891 71.60922605 379.51953967 78.72509955 385 86 C385.53737793 86.70366699 386.07475586 87.40733398 386.62841797 88.13232422 C394.36788244 98.30091442 400.64181987 108.41197406 406 120 C406.86922011 121.66968835 407.74348741 123.33676871 408.625 125 C425.03704252 157.93460384 428.29192676 194.82715635 428 231 C427.17903509 230.68268055 427.17903509 230.68268055 426.34148502 230.35895061 C420.81094317 228.34973796 416.03564951 227.55659708 410.17553711 227.56762695 C409.34516937 227.5574353 408.51480164 227.54724365 407.65927124 227.53674316 C404.94855802 227.50684865 402.23819948 227.49738364 399.52734375 227.48828125 C397.63447416 227.47141706 395.74161564 227.45326449 393.84877014 227.43388367 C388.892298 227.3865665 383.93587081 227.35663917 378.97924805 227.33044434 C373.91120533 227.30054618 368.84331717 227.25404781 363.77539062 227.20898438 C353.85034158 227.12315947 343.92526054 227.055722 334 227 C333.96388863 226.0695562 333.96388863 226.0695562 333.92704773 225.12031555 C333.81372764 222.26361571 333.694011 219.40721672 333.57421875 216.55078125 C333.51760071 215.0875946 333.51760071 215.0875946 333.45983887 213.59484863 C332.37126391 188.17529592 323.87264015 164.00387525 308 144 C307.35160156 143.14921875 306.70320313 142.2984375 306.03515625 141.421875 C285.22219193 114.55048345 254.70716663 99.03524833 221.30317688 94.68905067 C209.66230583 93.3560092 197.88688012 93.63819019 186.1875 93.5859375 C183.51992839 93.56719568 180.85237238 93.54771218 178.18481445 93.5272522 C171.92383719 93.48083321 165.66284306 93.44391318 159.40178394 93.41057932 C151.55946261 93.36830449 143.71723897 93.31304076 135.875 93.2578125 C121.91672094 93.15956884 107.95841629 93.08065995 94 93 C94 111.15 94 129.3 94 148 C62.98 148 31.96 148 0 148 C0 99.16 0 50.32 0 0 Z " fill="#D9490D" transform="translate(298,288)"/>
<path d="M0 0 C0.6546684 -0.00523668 1.30933679 -0.01047336 1.98384362 -0.01586872 C4.169981 -0.03082889 6.3558835 -0.03157299 8.54206848 -0.03224182 C10.11277153 -0.03986616 11.68347086 -0.04829413 13.25416565 -0.0574646 C17.51680899 -0.07939322 21.77938059 -0.08820663 26.04207397 -0.09329104 C28.70810464 -0.09693745 31.37411662 -0.10317907 34.04014015 -0.11029243 C43.34954781 -0.1347841 52.65889979 -0.1478376 61.96833801 -0.15138245 C70.63153366 -0.15501447 79.29437431 -0.18488658 87.95746154 -0.22678703 C95.4056523 -0.26154209 102.85372575 -0.27693181 110.30199701 -0.27762848 C114.74575261 -0.27841971 119.18914674 -0.28708669 123.63281822 -0.31562614 C127.81661462 -0.34189551 131.99975218 -0.34396306 136.18359375 -0.3279705 C137.71295426 -0.32616285 139.24235341 -0.33278465 140.77163124 -0.34878922 C149.45776303 -0.43409791 157.14272025 -0.13621057 164.35383606 5.27415466 C169.88751784 11.41865494 172.36951586 18.99439688 175.16633606 26.64915466 C180.20957694 39.72893371 185.21655293 49.01463003 198.00227356 55.90306091 C203.93592663 58.33046444 210.02097578 59.36575257 216.35383606 60.27415466 C216.35383606 60.60415466 216.35383606 60.93415466 216.35383606 61.27415466 C215.41956472 61.27497181 215.41956472 61.27497181 214.46641922 61.27580547 C199.26542298 61.29081536 184.06477132 61.3334312 168.86395645 61.40624523 C161.51273069 61.44080263 154.16169064 61.46623853 146.81037903 61.4697113 C140.39808337 61.47276416 133.98611924 61.49343063 127.57395148 61.53467923 C124.18306502 61.55589232 120.79264845 61.568671 117.40169525 61.56030846 C113.60300898 61.55538305 109.80567589 61.58158519 106.00715637 61.61473083 C104.90015884 61.60610519 103.79316132 61.59747955 102.65261841 61.58859253 C91.76994706 61.74682225 81.77719321 65.39257136 73.87678528 73.05003357 C70.51625159 77.01268807 68.31976842 81.62299185 65.98664856 86.23509216 C65.47377289 87.23361206 64.96089722 88.23213196 64.43247986 89.26091003 C57.59175013 102.62799983 50.91561179 116.07959172 44.22883606 129.52415466 C41.64549609 134.71815963 39.06054367 139.91135262 36.47102356 145.10227966 C36.15836296 145.72912155 35.84570236 146.35596344 35.5235672 147.00180054 C31.42146117 155.21896026 27.23536192 163.38455293 22.92314148 171.49345398 C17.8835088 180.99418043 13.13498834 190.64158825 8.35383606 200.27415466 C1.85527572 213.36677553 -4.74974696 226.38576901 -11.60124207 239.29747009 C-12.99800339 241.93973133 -14.37110038 244.59388806 -15.73991394 247.25071716 C-16.14983582 248.04220154 -16.55975769 248.83368591 -16.98210144 249.64915466 C-17.79344022 251.21737996 -18.60039913 252.78787568 -19.40397644 254.36009216 C-19.80358582 255.12837341 -20.20319519 255.89665466 -20.61491394 256.68821716 C-20.95973816 257.35804626 -21.30456238 258.02787537 -21.65983582 258.71800232 C-22.64616394 260.27415466 -22.64616394 260.27415466 -24.64616394 261.27415466 C-24.76028408 230.47062427 -24.84874173 199.66714232 -24.90149059 168.86345095 C-24.90774395 165.22487983 -24.91421558 161.58630914 -24.92082214 157.94773865 C-24.9221337 157.22338005 -24.92344525 156.49902146 -24.92479654 155.7527126 C-24.94653934 144.03168171 -24.98595459 132.31077372 -25.03192792 120.58981568 C-25.07872403 108.55853786 -25.10646598 96.52732431 -25.11660641 84.49595922 C-25.12284495 77.73996822 -25.13782028 70.98423325 -25.17481422 64.22833443 C-25.20877807 57.86801082 -25.21921581 51.50808024 -25.21170235 45.14767456 C-25.21307669 42.81483766 -25.22300635 40.48198747 -25.24219131 38.14922905 C-25.26713456 34.95956073 -25.26106343 31.7713688 -25.24743652 28.58166504 C-25.26200073 27.66238018 -25.27656494 26.74309531 -25.29157048 25.79595333 C-25.20379843 18.17496269 -22.60824418 12.63454494 -17.58366394 6.93431091 C-16.94428894 6.40708435 -16.30491394 5.87985779 -15.64616394 5.33665466 C-15.00678894 4.79138123 -14.36741394 4.24610779 -13.70866394 3.68431091 C-9.23060389 0.62260698 -5.37455166 0.02136871 0 0 Z " fill="#D84A0E" transform="translate(322.6461639404297,453.72584533691406)"/>
<path d="M0 0 C71.94 0 143.88 0 218 0 C218 0.33 218 0.66 218 1 C146.72 1 75.44 1 2 1 C2.33 48.85 2.66 96.7 3 146 C32.37 146 61.74 146 92 146 C92 128.84 92 111.68 92 94 C92.66 93.67 93.32 93.34 94 93 C94 111.15 94 129.3 94 148 C62.98 148 31.96 148 0 148 C0 99.16 0 50.32 0 0 Z " fill="#C85B29" transform="translate(298,288)"/>
<path d="M0 0 C0.33 0 0.66 0 1 0 C1.125 5.75 1.125 5.75 0 8 C100.98 8 201.96 8 306 8 C306 8.66 306 9.32 306 10 C203.7 10 101.4 10 -4 10 C-3.12931934 5.64659671 -2.41989375 3.52901171 0 0 Z " fill="#CE5926" transform="translate(315,726)"/>
<path d="M0 0 C29.1052717 -0.12049101 29.1052717 -0.12049101 43.63509178 -0.1507616 C51.44705147 -0.16729081 59.25891352 -0.18816765 67.07080078 -0.22631836 C73.2625675 -0.2565421 79.45426004 -0.27564973 85.64609849 -0.28226548 C88.91431301 -0.286123 92.18227023 -0.29662322 95.45042801 -0.31719017 C111.24442272 -0.41251035 126.41490004 0.36054266 142 3 C142 3.33 142 3.66 142 4 C139.70839681 4.02692484 137.41670454 4.04636124 135.125 4.0625 C133.84882812 4.07410156 132.57265625 4.08570313 131.2578125 4.09765625 C128 4 128 4 126 3 C124.35313431 2.89537351 122.70211603 2.85344931 121.05197144 2.84178162 C120.005867 2.8319928 118.95976257 2.82220398 117.88195801 2.81211853 C116.72965698 2.80636307 115.57735596 2.8006076 114.39013672 2.79467773 C113.18040192 2.78477814 111.97066711 2.77487854 110.72427368 2.76467896 C107.40218923 2.73845695 104.08012926 2.71660908 100.75800467 2.69667697 C97.28795357 2.67483264 93.8179465 2.64743637 90.34793091 2.62062073 C83.77481805 2.57067279 77.20168079 2.52574178 70.62852013 2.48259836 C63.14612036 2.43324392 55.66376476 2.37831915 48.18140769 2.32291877 C32.78764435 2.20906648 17.39384057 2.10296994 2 2 C2 18.83 2 35.66 2 53 C3.65 53 5.3 53 7 53 C6.67 53.66 6.34 54.32 6 55 C4.02 55 2.04 55 0 55 C0 36.85 0 18.7 0 0 Z " fill="#F8D1BA" transform="translate(392,381)"/>
<path d="M0 0 C0.54785156 0.32613281 1.09570312 0.65226562 1.66015625 0.98828125 C9.18997842 5.13886615 16.61740267 6.62525404 25 8 C25 8.33 25 8.66 25 9 C-15.59 9 -56.18 9 -98 9 C-98 8.67 -98 8.34 -98 8 C-92.83073078 6.95609522 -87.84702499 6.82953183 -82.59814453 6.79467773 C-81.67067917 6.78477814 -80.74321381 6.77487854 -79.78764343 6.76467896 C-76.73605868 6.73320728 -73.68445839 6.7083634 -70.6328125 6.68359375 C-68.51146043 6.66301184 -66.39011234 6.64201504 -64.26876831 6.62062073 C-58.69575233 6.56552785 -53.12270012 6.51606234 -47.54962158 6.46777344 C-41.85856924 6.4174649 -36.16756926 6.36182772 -30.4765625 6.30664062 C-19.3177531 6.19921548 -8.15889817 6.09773597 3 6 C2.505 4.515 2.505 4.515 2 3 C1.01 2.505 1.01 2.505 0 2 C0 1.34 0 0.68 0 0 Z " fill="#CF4D14" transform="translate(514,506)"/>
<path d="M0 0 C0.66 0 1.32 0 2 0 C0.125 5.75 0.125 5.75 -1 8 C-1.09719388 9.34432273 -1.13380693 10.69329378 -1.1386652 12.04111671 C-1.14413964 12.89156394 -1.14961409 13.74201116 -1.15525442 14.61822951 C-1.15623253 15.55790426 -1.15721064 16.49757901 -1.15821838 17.46572876 C-1.16315636 18.45974083 -1.16809434 19.45375291 -1.17318195 20.47788656 C-1.18861774 23.82981975 -1.19693398 27.1817337 -1.20532227 30.53369141 C-1.21489601 32.92804638 -1.22490579 35.32239964 -1.23532104 37.7167511 C-1.25680565 42.88251655 -1.27523933 48.04828344 -1.29092598 53.21406937 C-1.31361164 60.68298374 -1.34175626 68.15186964 -1.37124526 75.62075989 C-1.41893718 87.7377206 -1.46219702 99.85469293 -1.50268555 111.97167969 C-1.54203234 123.74414983 -1.58345659 135.51660964 -1.62768555 147.2890625 C-1.63040982 148.01437698 -1.63313409 148.73969146 -1.63594092 149.48698516 C-1.64962026 153.12557334 -1.66334056 156.76416136 -1.67708123 160.4027493 C-1.79107114 190.60181147 -1.89780135 220.80089549 -2 251 C-2.33 251 -2.66 251 -3 251 C-3 169.49 -3 87.98 -3 4 C-2.34 4 -1.68 4 -1 4 C-0.67 2.68 -0.34 1.36 0 0 Z " fill="#FEE2D4" transform="translate(300,464)"/>
<path d="M0 0 C4.5538807 8.75354496 4.12637153 18.84175615 4.0546875 28.4765625 C4.05073975 29.49145752 4.04679199 30.50635254 4.04272461 31.55200195 C4.03249565 34.03471609 4.01815777 36.51733333 4 39 C5.05822464 38.99555878 6.11644928 38.99111755 7.20674133 38.98654175 C17.16862354 38.94603769 27.13048909 38.91603582 37.09243488 38.89637566 C42.214246 38.88592848 47.33599075 38.87175223 52.45776367 38.84912109 C57.39848167 38.82742604 62.33913575 38.81543841 67.27989769 38.81024551 C69.16699416 38.80654375 71.05408705 38.79931535 72.94115639 38.78853989 C75.57974494 38.77406931 78.21806775 38.77202019 80.85668945 38.77294922 C81.6407164 38.76575867 82.42474335 38.75856812 83.23252869 38.75115967 C87.03272137 38.76568432 88.75816056 38.83877371 92 41 C62.63 41 33.26 41 3 41 C2.505 33.575 2.505 33.575 2 26 C1.67 24.68 1.34 23.36 1 22 C0.8562677 20.2683761 0.75425068 18.53301667 0.68359375 16.796875 C0.64169922 15.8171875 0.59980469 14.8375 0.55664062 13.828125 C0.51732422 12.81234375 0.47800781 11.7965625 0.4375 10.75 C0.39431641 9.71875 0.35113281 8.6875 0.30664062 7.625 C0.20074318 5.0834613 0.09866557 2.54182804 0 0 Z " fill="#FACCB6" transform="translate(628,476)"/>
<path d="M0 0 C1.66611905 -0.042721 3.33382885 -0.04063832 5 0 C5.495 0.495 5.495 0.495 6 1 C7.35052814 1.15958101 8.70609162 1.27728276 10.0625 1.375 C14.79821518 1.83794652 18.62125369 3.16888791 23 5 C22.67 5.66 22.34 6.32 22 7 C-19.58 7 -61.16 7 -104 7 C-104 6.67 -104 6.34 -104 6 C-65.72 5.67 -27.44 5.34 12 5 C8.7 4.01 5.4 3.02 2 2 C1.01 1.01 1.01 1.01 0 0 Z " fill="#F9B295" transform="translate(520,509)"/>
<path d="M0 0 C0.33 0 0.66 0 1 0 C1.66 14.52 2.32 29.04 3 44 C3.99 44 4.98 44 6 44 C6 43.34 6 42.68 6 42 C6.66 42 7.32 42 8 42 C7.67 40.35 7.34 38.7 7 37 C7.99 37 8.98 37 10 37 C10 35.68 10 34.36 10 33 C10.99 33 11.98 33 13 33 C11.44352176 38.30386878 9.08944985 42.96038392 6.5 47.8125 C6.09652344 48.58787109 5.69304687 49.36324219 5.27734375 50.16210938 C4.88675781 50.89880859 4.49617188 51.63550781 4.09375 52.39453125 C3.73990234 53.06331299 3.38605469 53.73209473 3.02148438 54.42114258 C2 56 2 56 0 57 C0 38.19 0 19.38 0 0 Z " fill="#CA4609" transform="translate(299,656)"/>
<path d="M0 0 C-1.423125 0.8971875 -1.423125 0.8971875 -2.875 1.8125 C-6.13964197 3.81562526 -6.13964197 3.81562526 -8 7 C-7.01 8.485 -7.01 8.485 -6 10 C-7.73559438 13.057952 -9.38472619 15.63379989 -12 18 C-12 16.68 -12 15.36 -12 14 C-12.99 14.33 -13.98 14.66 -15 15 C-15.33 15.99 -15.66 16.98 -16 18 C-16.66 16.68 -17.32 15.36 -18 14 C-20.61047801 15.305239 -20.68066423 16.35826574 -21.625 19.0625 C-21.88539063 19.79597656 -22.14578125 20.52945313 -22.4140625 21.28515625 C-22.60742188 21.85105469 -22.80078125 22.41695312 -23 23 C-23.99 23 -24.98 23 -26 23 C-23.45863167 12.83452666 -15.42893964 5.34088593 -6.75 0 C-3.89837593 -1.03695421 -2.7569685 -1.16640975 0 0 Z " fill="#EAE6DC" transform="translate(414,518)"/>
<path d="M0 0 C3.63 0.66 7.26 1.32 11 2 C11 1.34 11 0.68 11 0 C21.23 0 31.46 0 42 0 C42 0.99 42 1.98 42 3 C29.46 3 16.92 3 4 3 C3.67 3.99 3.34 4.98 3 6 C1.22265625 7.5703125 1.22265625 7.5703125 -0.9375 9.125 C-1.64777344 9.64320313 -2.35804688 10.16140625 -3.08984375 10.6953125 C-5 12 -5 12 -7 13 C-7 11.35 -7 9.7 -7 8 C-6.38125 7.7525 -5.7625 7.505 -5.125 7.25 C-2.6170261 5.77472123 -2.07707051 4.65125048 -1 2 C-0.67 1.34 -0.34 0.68 0 0 Z " fill="#EBE6DC" transform="translate(310,450)"/>
<path d="M0 0 C0.33 0 0.66 0 1 0 C1 7.59 1 15.18 1 23 C-1.97 22.01 -4.94 21.02 -8 20 C-11.01289669 19.72121992 -13.8193242 19.5619707 -16.82446289 19.56762695 C-17.65483063 19.5574353 -18.48519836 19.54724365 -19.34072876 19.53674316 C-22.05144198 19.50684865 -24.76180052 19.49738364 -27.47265625 19.48828125 C-29.36552584 19.47141706 -31.25838436 19.45326449 -33.15122986 19.43388367 C-38.107702 19.3865665 -43.06412919 19.35663917 -48.02075195 19.33044434 C-53.08879467 19.30054618 -58.15668283 19.25404781 -63.22460938 19.20898438 C-73.14965842 19.12315947 -83.07473946 19.055722 -93 19 C-93 14.05 -93 9.1 -93 4 C-92.67 4 -92.34 4 -92 4 C-91.67 8.29 -91.34 12.58 -91 17 C-89.40053276 17.0154612 -89.40053276 17.0154612 -87.76875305 17.03123474 C-77.71912739 17.12899663 -67.66956325 17.23173339 -57.62003803 17.33933926 C-52.45350054 17.39450039 -47.28695732 17.44790949 -42.12036133 17.49731445 C-37.13420432 17.54505846 -32.1481149 17.59740484 -27.1620388 17.65294075 C-25.25987621 17.67331885 -23.35769512 17.69203934 -21.45549965 17.70907402 C-18.79098451 17.73321877 -16.12659613 17.7632594 -13.4621582 17.79467773 C-12.67597107 17.8004332 -11.88978394 17.80618866 -11.07977295 17.81211853 C-7.18692589 17.86428398 -3.85331777 18.22933645 0 19 C0 12.73 0 6.46 0 0 Z " fill="#BC5224" transform="translate(725,496)"/>
<path d="M0 0 C4.29 0.66 8.58 1.32 13 2 C13 2.33 13 2.66 13 3 C-27.59 3 -68.18 3 -110 3 C-110 2.67 -110 2.34 -110 2 C-73.7 2 -37.4 2 0 2 C0 1.34 0 0.68 0 0 Z " fill="#B5491C" transform="translate(526,512)"/>
<path d="M0 0 C4.68378021 7.02567031 6.53088017 15.60390205 8.6875 23.6875 C8.90188721 24.48285156 9.11627441 25.27820313 9.3371582 26.09765625 C10.62890331 31.06059556 11.46944754 35.89853406 12 41 C9 39 9 39 8.55859375 37.08984375 C8.51863281 36.37957031 8.47867188 35.66929687 8.4375 34.9375 C8.293125 33.638125 8.14875 32.33875 8 31 C7.34 30.67 6.68 30.34 6 30 C6 28.35 6 26.7 6 25 C5.34 25 4.68 25 4 25 C4 22.69 4 20.38 4 18 C3.67 18 3.34 18 3 18 C3 15.03 3 12.06 3 9 C1.68 9 0.36 9 -1 9 C-0.67 6.03 -0.34 3.06 0 0 Z " fill="#CA5525" transform="translate(710,423)"/>
<path d="M0 0 C0.33 0 0.66 0 1 0 C1.33 1.98 1.66 3.96 2 6 C1.01 6 0.02 6 -1 6 C-0.67 8.31 -0.34 10.62 0 13 C-1.32 13.33 -2.64 13.66 -4 14 C-4.73832608 18.32448133 -5.39174965 22.65535464 -6 27 C-8.31 27.33 -10.62 27.66 -13 28 C-11.74577315 24.01207054 -10.28484419 20.33050596 -8.3984375 16.6015625 C-7.90859375 15.62832031 -7.41875 14.65507813 -6.9140625 13.65234375 C-6.40617187 12.65332031 -5.89828125 11.65429688 -5.375 10.625 C-4.859375 9.60277344 -4.34375 8.58054687 -3.8125 7.52734375 C-2.54528127 5.01637331 -1.27435444 2.50735439 0 0 Z " fill="#F2DFD2" transform="translate(348,618)"/>
<path d="M0 0 C0.99 0.33 1.98 0.66 3 1 C2.52542358 1.90371338 2.52542358 1.90371338 2.04125977 2.82568359 C-4.77540462 15.81790809 -11.49763402 28.84748699 -18 42 C-18.99 41.01 -19.98 40.02 -21 39 C-20.01 39 -19.02 39 -18 39 C-18.66 38.67 -19.32 38.34 -20 38 C-18.125 34.125 -18.125 34.125 -17 33 C-17 32.34 -17 31.68 -17 31 C-16.01 31 -15.02 31 -14 31 C-13.67 29.02 -13.34 27.04 -13 25 C-12.34 25 -11.68 25 -11 25 C-10.67 22.36 -10.34 19.72 -10 17 C-9.01 17 -8.02 17 -7 17 C-7.061875 16.236875 -7.12375 15.47375 -7.1875 14.6875 C-7 12 -7 12 -5.5625 10.625 C-3.14743461 8.11333199 -3.31735658 5.36397973 -3 2 C-2.34 2 -1.68 2 -1 2 C-0.67 1.34 -0.34 0.68 0 0 Z " fill="#C44E1D" transform="translate(391,529)"/>
<path d="M0 0 C0.99 0 1.98 0 3 0 C0.89078689 6.71113261 -4.10551799 10.57461269 -9.9296875 14.12890625 C-13.28862394 15.5421946 -15.5404719 14.93695553 -19 14 C-17.875 12 -17.875 12 -16 10 C-13.0625 9.875 -13.0625 9.875 -10 10 C-7.69769234 9.10168984 -7.69769234 9.10168984 -6 8 C-6 6.35 -6 4.7 -6 3 C-4.68 3 -3.36 3 -2 3 C-1.34 2.01 -0.68 1.02 0 0 Z " fill="#D44D14" transform="translate(636,720)"/>
<path d="M0 0 C2.31 0 4.62 0 7 0 C7.12375 0.721875 7.2475 1.44375 7.375 2.1875 C8.24788173 6.11546779 9.1263324 9.1263324 12 12 C11.625 14.125 11.625 14.125 11 16 C11.66 16 12.32 16 13 16 C14.9451 18.91765 15.45276317 20.62537285 16 24 C16.33 24 16.66 24 17 24 C17 26.31 17 28.62 17 31 C14.76213566 27.64320349 13.06976636 24.1191119 11.3125 20.5 C8.30325767 14.36957264 5.04498721 8.62541612 1.25 2.94140625 C0 1 0 1 0 0 Z " fill="#C95020" transform="translate(608,433)"/>
<path d="M0 0 C0.66 0 1.32 0 2 0 C2.66 2.97 3.32 5.94 4 9 C2.68 8.67 1.36 8.34 0 8 C1.32 9.32 2.64 10.64 4 12 C4 11.34 4 10.68 4 10 C4.99 10 5.98 10 7 10 C6.67 12.31 6.34 14.62 6 17 C2.22270031 15.48908012 0.31320028 13.28723638 -2.1875 10.125 C-3.22970703 8.82949219 -3.22970703 8.82949219 -4.29296875 7.5078125 C-5.85244234 5.21677807 -6.5789823 3.70205392 -7 1 C-4.525 1.495 -4.525 1.495 -2 2 C-2 2.66 -2 3.32 -2 4 C-1.34 4 -0.68 4 0 4 C0 2.68 0 1.36 0 0 Z " fill="#EFE3DB" transform="translate(508,488)"/>
<path d="M0 0 C3 2 3 2 3.73046875 4.171875 C4.55730738 8.83609292 5.25059106 13.23876991 5 18 C5.66 18 6.32 18 7 18 C7.66 16.68 8.32 15.36 9 14 C9.99 15.485 9.99 15.485 11 17 C10.01 17.33 9.02 17.66 8 18 C7.67 23.28 7.34 28.56 7 34 C6.67 34 6.34 34 6 34 C5.88930176 33.32533691 5.77860352 32.65067383 5.66455078 31.95556641 C5.15314361 28.84508259 4.63908667 25.73504203 4.125 22.625 C3.95097656 21.56410156 3.77695312 20.50320313 3.59765625 19.41015625 C2.52132749 12.91231968 1.34168604 6.44839952 0 0 Z M4 2 C4.66 2 5.32 2 6 2 C6 3.32 6 4.64 6 6 C5.34 6 4.68 6 4 6 C4 4.68 4 3.36 4 2 Z " fill="#F3DCCB" transform="translate(718,446)"/>
<path d="M0 0 C0.66 0 1.32 0 2 0 C0.74350652 4.02846367 -0.74173962 7.67841695 -2.71484375 11.40625 C-3.49698242 12.89318359 -3.49698242 12.89318359 -4.29492188 14.41015625 C-4.83697266 15.42980469 -5.37902344 16.44945312 -5.9375 17.5 C-7.00950985 19.53104142 -8.08113587 21.56228549 -9.15234375 23.59375 C-9.89846924 25.00527344 -9.89846924 25.00527344 -10.65966797 26.4453125 C-12.14620221 29.27866301 -13.5888436 32.12851799 -15 35 C-15.33 35 -15.66 35 -16 35 C-16 33.35 -16 31.7 -16 30 C-15.34 30 -14.68 30 -14 30 C-13.87625 28.9275 -13.7525 27.855 -13.625 26.75 C-13.10356064 23.62136385 -12.59911746 21.66519576 -11 19 C-10.34 19 -9.68 19 -9 19 C-8.690625 18.05125 -8.38125 17.1025 -8.0625 16.125 C-7 13 -7 13 -6 11 C-5.34 11 -4.68 11 -4 11 C-4.061875 10.236875 -4.12375 9.47375 -4.1875 8.6875 C-3.96487909 5.49660032 -3.31697562 5.03893855 -1 3 C-0.67 2.01 -0.34 1.02 0 0 Z " fill="#C34D1C" transform="translate(353,605)"/>
<path d="M0 0 C0.99 0 1.98 0 3 0 C1.4719611 5.09882455 -0.71036856 9.65665659 -3.125 14.375 C-3.49753906 15.11105469 -3.87007813 15.84710937 -4.25390625 16.60546875 C-5.1656122 18.40550358 -6.08229932 20.20301402 -7 22 C-7.33 22 -7.66 22 -8 22 C-8.98329211 17.94392005 -9.23600253 14.16937798 -9 10 C-8.34 9.34 -7.68 8.68 -7 8 C-7 8.99 -7 9.98 -7 11 C-6.01 11 -5.02 11 -4 11 C-4 10.34 -4 9.68 -4 9 C-3.34 9 -2.68 9 -2 9 C-2.33 7.35 -2.66 5.7 -3 4 C-2.01 4 -1.02 4 0 4 C0 2.68 0 1.36 0 0 Z " fill="#CD4A13" transform="translate(309,689)"/>
<path d="M0 0 C0.66 0 1.32 0 2 0 C0.4719611 5.09882455 -1.71036856 9.65665659 -4.125 14.375 C-4.49753906 15.11105469 -4.87007812 15.84710937 -5.25390625 16.60546875 C-6.1656122 18.40550358 -7.08229932 20.20301402 -8 22 C-9.125 18.25 -9.125 18.25 -8 16 C-8.66 16 -9.32 16 -10 16 C-11.35439668 13.29120665 -11.06501451 10.99066732 -11 8 C-8.525 8.99 -8.525 8.99 -6 10 C-5.34 9.01 -4.68 8.02 -4 7 C-3.34 7 -2.68 7 -2 7 C-1.855625 6.21625 -1.71125 5.4325 -1.5625 4.625 C-1 2 -1 2 0 0 Z " fill="#D04D10" transform="translate(673,650)"/>
<path d="M0 0 C3.34373475 0.55728913 6.03312999 1.35173889 9 3 C9 3.66 9 4.32 9 5 C10.32 5 11.64 5 13 5 C13.99 6.485 13.99 6.485 15 8 C16.32 8 17.64 8 19 8 C19 8.99 19 9.98 19 11 C19.66 11 20.32 11 21 11 C22.65625 12.609375 22.65625 12.609375 24.5 14.75 C25.1084375 15.44609375 25.716875 16.1421875 26.34375 16.859375 C27.87976963 18.84460792 28.9723966 20.71872045 30 23 C29.05125 22.175 28.1025 21.35 27.125 20.5 C25.75238314 19.33053043 24.37714527 18.16413359 23 17 C22.26265625 16.37351562 21.5253125 15.74703125 20.765625 15.1015625 C14.97126732 10.31080272 8.95077147 6.37741827 2.4921875 2.56640625 C1.66976562 2.04949219 0.84734375 1.53257812 0 1 C0 0.67 0 0.34 0 0 Z " fill="#C54F23" transform="translate(567,397)"/>
<path d="M0 0 C0.99 0.33 1.98 0.66 3 1 C-2.28 11.56 -7.56 22.12 -13 33 C-13.33 33 -13.66 33 -14 33 C-13.4140625 26.84765625 -13.4140625 26.84765625 -13 25 C-12.34 24.67 -11.68 24.34 -11 24 C-10.34786708 21.97536745 -10.34786708 21.97536745 -10 20 C-9.34 20 -8.68 20 -8 20 C-7.814375 19.2265625 -7.814375 19.2265625 -7.625 18.4375 C-7.41875 17.633125 -7.2125 16.82875 -7 16 C-6.690625 14.783125 -6.38125 13.56625 -6.0625 12.3125 C-5.711875 11.219375 -5.36125 10.12625 -5 9 C-4.34 8.67 -3.68 8.34 -3 8 C-2.34786708 5.97536745 -2.34786708 5.97536745 -2 4 C-1.34 4 -0.68 4 0 4 C0 2.68 0 1.36 0 0 Z " fill="#C35428" transform="translate(369,572)"/>
<path d="M0 0 C6.00966041 1.9556861 8.15241435 5.55849294 11 11 C12.22255336 14.28903348 13.18789305 17.58772608 14 21 C13.01 21 12.02 21 11 21 C10.71125 20.195625 10.4225 19.39125 10.125 18.5625 C9.26737432 15.8673532 9.26737432 15.8673532 7 15 C6.71080072 13.00773831 6.42735449 11.01277818 6.24609375 9.0078125 C6.0424937 6.79670732 6.0424937 6.79670732 5 4 C2.03 3.505 2.03 3.505 -1 3 C-0.67 2.01 -0.34 1.02 0 0 Z " fill="#CB5123" transform="translate(482,457)"/>
<path d="M0 0 C7.73309802 0.79184228 14.83293489 1.7936814 22 5 C22.33 5.66 22.66 6.32 23 7 C25.30965848 8.05352843 27.6429774 9.05719096 30 10 C29.67 10.66 29.34 11.32 29 12 C28.2776416 11.70867187 27.5552832 11.41734375 26.81103516 11.1171875 C24.22523843 10.08951633 21.62973359 9.09927867 19.0234375 8.125 C18.105625 7.77953125 17.1878125 7.4340625 16.2421875 7.078125 C14.32388273 6.35680059 12.40460161 5.63806763 10.484375 4.921875 C9.56914063 4.57640625 8.65390625 4.2309375 7.7109375 3.875 C6.87868652 3.56304687 6.04643555 3.25109375 5.18896484 2.9296875 C3 2 3 2 0 0 Z " fill="#C75222" transform="translate(538,385)"/>
<path d="M0 0 C11.98449067 0.3105057 23.36422303 0.8906075 35 4 C35 4.33 35 4.66 35 5 C23.78 4.34 12.56 3.68 1 3 C0.67 2.01 0.34 1.02 0 0 Z " fill="#C85425" transform="translate(519,289)"/>
<path d="M0 0 C6.03141568 11.58099115 4.59863404 27.26886751 5 40 C4.01 40.495 4.01 40.495 3 41 C2.93941406 39.96359375 2.87882813 38.9271875 2.81640625 37.859375 C2.73196629 36.48957127 2.64732003 35.11978025 2.5625 33.75 C2.52318359 33.06808594 2.48386719 32.38617188 2.44335938 31.68359375 C2.21928855 27.85352797 2.21928855 27.85352797 1.5 24.09570312 C0.91306352 21.63561388 0.7864294 19.32369386 0.68359375 16.796875 C0.64169922 15.8171875 0.59980469 14.8375 0.55664062 13.828125 C0.51732422 12.81234375 0.47800781 11.7965625 0.4375 10.75 C0.39431641 9.71875 0.35113281 8.6875 0.30664062 7.625 C0.20074318 5.0834613 0.09866557 2.54182804 0 0 Z " fill="#F5D7C2" transform="translate(628,476)"/>
<path d="M0 0 C3.3 0.99 6.6 1.98 10 3 C10 3.66 10 4.32 10 5 C10.99 5.33 11.98 5.66 13 6 C14.16989203 7.40387044 15.33571172 8.8115035 16.47265625 10.2421875 C20.09046687 14.40590816 24.42211756 17.94807837 29 21 C28.67 21.99 28.34 22.98 28 24 C27.62230469 23.59910156 27.24460937 23.19820313 26.85546875 22.78515625 C19.29188995 14.97359126 10.81405486 8.36807418 1.80078125 2.3125 C1.20652344 1.879375 0.61226562 1.44625 0 1 C0 0.67 0 0.34 0 0 Z " fill="#F8DDC6" transform="translate(634,327)"/>
<path d="M0 0 C0.33 0 0.66 0 1 0 C1 2.64 1 5.28 1 8 C0.01 8.33 -0.98 8.66 -2 9 C-3.22520264 12.00847418 -3.22520264 12.00847418 -4 15 C-4.66 15 -5.32 15 -6 15 C-6.020625 16.258125 -6.04125 17.51625 -6.0625 18.8125 C-6.07410156 19.52019531 -6.08570313 20.22789062 -6.09765625 20.95703125 C-6.08263217 23.20305461 -6.08263217 23.20305461 -5 26 C-5.598125 25.67 -6.19625 25.34 -6.8125 25 C-9.05386471 23.79212012 -9.05386471 23.79212012 -12 24 C-8.04 16.08 -4.08 8.16 0 0 Z " fill="#C34F21" transform="translate(331,694)"/>
<path d="M0 0 C1.66611905 -0.042721 3.33382885 -0.04063832 5 0 C5.33 0.33 5.66 0.66 6 1 C7.35052814 1.15958101 8.70609162 1.27728276 10.0625 1.375 C14.79821518 1.83794652 18.62125369 3.16888791 23 5 C22.67 5.66 22.34 6.32 22 7 C14.74 7 7.48 7 0 7 C0 6.67 0 6.34 0 6 C5.94 5.505 5.94 5.505 12 5 C9.586875 4.319375 9.586875 4.319375 7.125 3.625 C2.25 2.25 2.25 2.25 0 0 Z " fill="#F1C3AB" transform="translate(520,509)"/>
<path d="M0 0 C2.64 0 5.28 0 8 0 C5.76982076 2.23017924 4.32530524 2.67818505 1.375 3.6875 C-4.10018397 5.78048457 -7.87789517 8.90092369 -12 13 C-12.33 12.01 -12.66 11.02 -13 10 C-12.34 10 -11.68 10 -11 10 C-10.67 8.02 -10.34 6.04 -10 4 C-6.69246505 2.89748835 -3.35433109 1.94933899 0 1 C0 0.67 0 0.34 0 0 Z " fill="#CB5422" transform="translate(408,515)"/>
<path d="M0 0 C1.65 0 3.3 0 5 0 C2.36 5.61 -0.28 11.22 -3 17 C-5 15 -5 15 -5.125 12.375 C-5.08375 11.59125 -5.0425 10.8075 -5 10 C-4.34 9.67 -3.68 9.34 -3 9 C-2.64080332 7.33871537 -2.31088368 5.67099977 -2 4 C-0.9375 1.6875 -0.9375 1.6875 0 0 Z " fill="#F2DECE" transform="translate(341,665)"/>
<path d="M0 0 C0.99 0.33 1.98 0.66 3 1 C3 1.66 3 2.32 3 3 C3.66 3 4.32 3 5 3 C3.55676531 7.73789165 1.62773267 11.98858151 -0.625 16.375 C-1.11226562 17.33599609 -1.11226562 17.33599609 -1.609375 18.31640625 C-2.40257407 19.87947501 -3.20077031 21.44000622 -4 23 C-4.33 23 -4.66 23 -5 23 C-5.1875 20.1875 -5.1875 20.1875 -5 17 C-3.625 15.4375 -3.625 15.4375 -2 14 C0.523831 9.48367083 0.19688485 5.02056379 0 0 Z " fill="#C84E1D" transform="translate(680,627)"/>
<path d="M0 0 C1.5 1.25 1.5 1.25 3 3 C3 4.32 3 5.64 3 7 C2.34 7 1.68 7 1 7 C0.67 7.99 0.34 8.98 0 10 C-1.32 10 -2.64 10 -4 10 C-4.144375 10.78375 -4.28875 11.5675 -4.4375 12.375 C-5 15 -5 15 -6 17 C-6.66 17 -7.32 17 -8 17 C-6.3341708 10.83643195 -3.12194714 5.51740344 0 0 Z " fill="#F3DCCC" transform="translate(715,572)"/>
<path d="M0 0 C0.66 0.99 1.32 1.98 2 3 C1.35561283 4.67540664 0.68753301 6.34183216 0 8 C0.28739925 10.24240782 0.28739925 10.24240782 1 12 C-3.625 16 -3.625 16 -7 16 C-5.35433477 10.31497465 -2.70967216 5.23318364 0 0 Z " fill="#F1D9C8" transform="translate(317,679)"/>
<path d="M0 0 C2.86724686 0.57344937 3.8614515 0.8614515 6 3 C5.34 3 4.68 3 4 3 C3.67 3.99 3.34 4.98 3 6 C1.22265625 7.5703125 1.22265625 7.5703125 -0.9375 9.125 C-1.64777344 9.64320313 -2.35804688 10.16140625 -3.08984375 10.6953125 C-5 12 -5 12 -7 13 C-7 11.35 -7 9.7 -7 8 C-6.38125 7.7525 -5.7625 7.505 -5.125 7.25 C-2.6170261 5.77472123 -2.07707051 4.65125048 -1 2 C-0.67 1.34 -0.34 0.68 0 0 Z " fill="#EFE1D9" transform="translate(310,450)"/>
<path d="M0 0 C0.33 0.66 0.66 1.32 1 2 C1.66 2.33 2.32 2.66 3 3 C1.73412642 5.58587003 0.46254151 8.16865501 -0.8125 10.75 C-1.16892578 11.47960937 -1.52535156 12.20921875 -1.89257812 12.9609375 C-3.67530517 16.55910218 -5.41088339 19.89632709 -8 23 C-7 18 -6 13 -5 8 C-3.68 8 -2.36 8 -1 8 C-1.020625 7.05125 -1.04125 6.1025 -1.0625 5.125 C-1 2 -1 2 0 0 Z " fill="#C64E1D" transform="translate(693,607)"/>
<path d="M0 0 C0.76849965 2.25542675 1.15628879 3.53906176 0.37915039 5.83105469 C0.03875732 6.43852539 -0.30163574 7.04599609 -0.65234375 7.671875 C-1.19858398 8.66767578 -1.19858398 8.66767578 -1.75585938 9.68359375 C-2.14580078 10.36550781 -2.53574219 11.04742188 -2.9375 11.75 C-3.32357422 12.44738281 -3.70964844 13.14476562 -4.10742188 13.86328125 C-5.06073637 15.5816012 -6.02895346 17.29163804 -7 19 C-6.01 18.67 -5.02 18.34 -4 18 C-4.66 19.32 -5.32 20.64 -6 22 C-7.32 21.67 -8.64 21.34 -10 21 C-8.51991304 15.99886406 -6.3681664 11.67084403 -3.875 7.125 C-3.50246094 6.43664062 -3.12992187 5.74828125 -2.74609375 5.0390625 C-1.83500474 3.35705202 -0.91809685 1.67819564 0 0 Z " fill="#C85926" transform="translate(384,589)"/>
<path d="M0 0 C0.68707555 2.49064888 1 4.37886292 1 7 C0.02950856 8.02866241 -0.97426853 9.0264113 -2 10 C-3.0759981 11.74461521 -3.0759981 11.74461521 -3.97265625 13.65234375 C-4.31490234 14.34650391 -4.65714844 15.04066406 -5.00976562 15.75585938 C-5.35716797 16.47580078 -5.70457031 17.19574219 -6.0625 17.9375 C-6.41376953 18.65357422 -6.76503906 19.36964844 -7.12695312 20.10742188 C-7.78281078 21.44517311 -8.43618443 22.78414732 -9.08618164 24.12475586 C-10.04390695 26.09010134 -11.01935113 28.0460064 -12 30 C-12.66 29.67 -13.32 29.34 -14 29 C-13.61142822 28.22809326 -13.22285645 27.45618652 -12.82250977 26.66088867 C-11.38030449 23.79353158 -9.93990935 20.92527459 -8.50073242 18.05639648 C-7.87775807 16.81547308 -7.2540658 15.57490981 -6.62963867 14.3347168 C-5.73166775 12.55091936 -4.83650027 10.76571153 -3.94140625 8.98046875 C-3.40201416 7.90692139 -2.86262207 6.83337402 -2.30688477 5.72729492 C-0.93163668 3.00288086 -0.93163668 3.00288086 0 0 Z " fill="#C15628" transform="translate(399,558)"/>
<path d="M0 0 C6.01893759 3.08453491 11.00623769 6.43123874 16 11 C15.01 11.33 14.02 11.66 13 12 C12.34 11.67 11.68 11.34 11 11 C11 10.01 11 9.02 11 8 C9.68 8 8.36 8 7 8 C7 7.34 7 6.68 7 6 C5.02 6 3.04 6 1 6 C0.67 4.02 0.34 2.04 0 0 Z " fill="#F4DDC5" transform="translate(571,400)"/>
<path d="M0 0 C0.66 0.33 1.32 0.66 2 1 C-1.63 7.93 -5.26 14.86 -9 22 C-9.33 22 -9.66 22 -10 22 C-10 20.02 -10 18.04 -10 16 C-9.34 15.67 -8.68 15.34 -8 15 C-5.6893502 11.02568234 -4.5425148 7.55712436 -4 3 C-3.34 3 -2.68 3 -2 3 C-1.34 2.01 -0.68 1.02 0 0 Z " fill="#F7D9C0" transform="translate(384,586)"/>
<path d="M0 0 C1.65 0 3.3 0 5 0 C4.01 0.495 4.01 0.495 3 1 C3 1.66 3 2.32 3 3 C3.99 3.33 4.98 3.66 6 4 C6 4.66 6 5.32 6 6 C7.65 6.33 9.3 6.66 11 7 C11 9.64 11 12.28 11 15 C7.80750523 12.03352255 5.5407013 8.95036364 3.25 5.25 C2.63640625 4.26515625 2.0228125 3.2803125 1.390625 2.265625 C0.93171875 1.51796875 0.4728125 0.7703125 0 0 Z " fill="#F5DCC9" transform="translate(682,373)"/>
<path d="M0 0 C0.33 0 0.66 0 1 0 C1.33 1.98 1.66 3.96 2 6 C1.01 6 0.02 6 -1 6 C-0.67 8.31 -0.34 10.62 0 13 C-0.639375 13.12375 -1.27875 13.2475 -1.9375 13.375 C-2.618125 13.58125 -3.29875 13.7875 -4 14 C-4.33 14.66 -4.66 15.32 -5 16 C-5.66 16 -6.32 16 -7 16 C-5.35433477 10.31497465 -2.70967216 5.23318364 0 0 Z " fill="#F2D9C1" transform="translate(348,618)"/>
<path d="M0 0 C-2.31 4.62 -4.62 9.24 -7 14 C-7.66 13.01 -8.32 12.02 -9 11 C-8.67 10.34 -8.34 9.68 -8 9 C-7.38588651 6.77383859 -6.93393525 4.59417366 -6.5625 2.3125 C-6.376875 1.549375 -6.19125 0.78625 -6 0 C-4 -1 -4 -1 0 0 Z " fill="#F4DDCD" transform="translate(394,571)"/>
<path d="M0 0 C0.66 0.33 1.32 0.66 2 1 C-0.97 6.61 -3.94 12.22 -7 18 C-8.6415049 14.7169902 -7.51888624 11.57454967 -7 8 C-6.34 8 -5.68 8 -5 8 C-4.67 7.34 -4.34 6.68 -4 6 C-3.34 6 -2.68 6 -2 6 C-2 4.68 -2 3.36 -2 2 C-1.34 2 -0.68 2 0 2 C0 1.34 0 0.68 0 0 Z " fill="#C34F1B" transform="translate(657,682)"/>
<path d="M0 0 C1.04449911 3.13349732 0.93423645 3.98968256 0 7 C-0.66 7 -1.32 7 -2 7 C-2 9.31 -2 11.62 -2 14 C-2.61875 14.04125 -3.2375 14.0825 -3.875 14.125 C-4.57625 14.41375 -5.2775 14.7025 -6 15 C-7.3045656 17.99615946 -7.3045656 17.99615946 -8 21 C-8.66 20.67 -9.32 20.34 -10 20 C-6.66666667 13.33333333 -3.33333333 6.66666667 0 0 Z " fill="#F8DAC7" transform="translate(359,597)"/>
<path d="M0 0 C4.29 0.66 8.58 1.32 13 2 C13 2.33 13 2.66 13 3 C1.45 3 -10.1 3 -22 3 C-22 2.67 -22 2.34 -22 2 C-14.74 2 -7.48 2 0 2 C0 1.34 0 0.68 0 0 Z " fill="#BA4E21" transform="translate(526,512)"/>
<path d="M0 0 C1.32 0.33 2.64 0.66 4 1 C4.66 3.31 5.32 5.62 6 8 C4.22739369 7.54857225 2.4569632 7.08859477 0.6875 6.625 C-0.79169922 6.24214844 -0.79169922 6.24214844 -2.30078125 5.8515625 C-5 5 -5 5 -8 3 C-5.03 3 -2.06 3 1 3 C0.67 2.01 0.34 1.02 0 0 Z " fill="#EFDBC7" transform="translate(588,297)"/>
<path d="M0 0 C1.32 0.33 2.64 0.66 4 1 C1.36 5.95 -1.28 10.9 -4 16 C-4.33 16 -4.66 16 -5 16 C-5 13.69 -5 11.38 -5 9 C-4.34 8.67 -3.68 8.34 -3 8 C-3 6.68 -3 5.36 -3 4 C-2.01 4 -1.02 4 0 4 C0 2.68 0 1.36 0 0 Z " fill="#C6501B" transform="translate(317,673)"/>
<path d="M0 0 C0.99 1.32 1.98 2.64 3 4 C2.01 6.31 1.02 8.62 0 11 C-1.65 11 -3.3 11 -5 11 C-3.55049545 7.2089881 -1.84827434 3.6125362 0 0 Z " fill="#F0E1D1" transform="translate(323,668)"/>
<path d="M0 0 C2.64 0.33 5.28 0.66 8 1 C8 1.66 8 2.32 8 3 C6.453125 3.5878125 6.453125 3.5878125 4.875 4.1875 C0.93510324 5.85653977 -1.83517421 8.1439377 -5 11 C-4.42655063 8.13275314 -4.1385485 7.1385485 -2 5 C-1.29289322 3.35008418 -0.62056011 1.68437744 0 0 Z " fill="#F5DAC6" transform="translate(412,532)"/>
<path d="M0 0 C0.33 0 0.66 0 1 0 C1 7.59 1 15.18 1 23 C-1.97 22.01 -4.94 21.02 -8 20 C-8 19.67 -8 19.34 -8 19 C-5.36 19 -2.72 19 0 19 C0 12.73 0 6.46 0 0 Z " fill="#CB683E" transform="translate(725,496)"/>
<path d="M0 0 C0.66 0 1.32 0 2 0 C6.33160602 7.55034884 10.10030869 14.18302512 11 23 C5.32105064 17.32105064 2.87635305 7.40781427 0 0 Z " fill="#FAD9C4" transform="translate(700,400)"/>
<path d="M0 0 C2.22855574 -0.0814222 4.45797655 -0.13938079 6.6875 -0.1875 C8.54955078 -0.23970703 8.54955078 -0.23970703 10.44921875 -0.29296875 C14.19991035 0.01649425 16.06718955 0.68403305 19 3 C19 3.66 19 4.32 19 5 C12.73 3.68 6.46 2.36 0 1 C0 0.67 0 0.34 0 0 Z " fill="#EFD7BD" transform="translate(554,293)"/>
<path d="M0 0 C3 1 3 1 4.3671875 3.16796875 C5.24585218 7.10026437 4.03912898 8.82878526 2.125 12.3125 C1.55007813 13.38113281 0.97515625 14.44976563 0.3828125 15.55078125 C-0.30167969 16.76314453 -0.30167969 16.76314453 -1 18 C-1.93423645 14.98968256 -2.04449911 14.13349732 -1 11 C-0.34 11 0.32 11 1 11 C1.33 8.36 1.66 5.72 2 3 C1.34 3 0.68 3 0 3 C0 2.01 0 1.02 0 0 Z " fill="#CC4D1F" transform="translate(330,640)"/>
<path d="M0 0 C0.99 0 1.98 0 3 0 C1.39369175 4.24292532 -0.5768162 8.27025107 -2.625 12.3125 C-3.11226563 13.28026367 -3.11226563 13.28026367 -3.609375 14.26757812 C-4.40441956 15.84597541 -5.20195634 17.42311694 -6 19 C-6.94800355 16.46049958 -7.16619002 15.38567304 -6.07421875 12.8515625 C-5.61660156 12.11679687 -5.15898437 11.38203125 -4.6875 10.625 C-2.62261794 7.15485098 -1.10307583 3.91090521 0 0 Z " fill="#F7D8C3" transform="translate(358,635)"/>
<path d="M0 0 C0.66 0 1.32 0 2 0 C2 0.66 2 1.32 2 2 C1.34 2 0.68 2 0 2 C-1.22632552 4.27746168 -2.11882757 6.39043344 -2.875 8.875 C-4.13410292 12.37250811 -5.75083402 15.04796965 -8 18 C-8.66 18 -9.32 18 -10 18 C-8.6948802 13.5730861 -6.9640877 10.04331547 -4.4375 6.1875 C-3.81746094 5.23230469 -3.19742187 4.27710938 -2.55859375 3.29296875 C-1 1 -1 1 0 0 Z " fill="#C35B2E" transform="translate(411,538)"/>
<path d="M0 0 C0.66 0 1.32 0 2 0 C0.125 5.75 0.125 5.75 -1 8 C-1.15067214 9.4465242 -1.24861036 10.8987934 -1.31640625 12.3515625 C-1.35830078 13.20234375 -1.40019531 14.053125 -1.44335938 14.9296875 C-1.48267578 15.81914062 -1.52199219 16.70859375 -1.5625 17.625 C-1.60568359 18.5221875 -1.64886719 19.419375 -1.69335938 20.34375 C-1.79956861 22.56234283 -1.90161194 24.7810488 -2 27 C-2.33 27 -2.66 27 -3 27 C-3 19.41 -3 11.82 -3 4 C-2.34 4 -1.68 4 -1 4 C-0.67 2.68 -0.34 1.36 0 0 Z " fill="#FEE6D4" transform="translate(300,464)"/>
<path d="M0 0 C7.99441599 1.19601499 15.397691 3.26688367 23 6 C19.59598052 7.13732426 17.22543336 6.83989957 13.75 6.0625 C12.85796875 5.86785156 11.9659375 5.67320312 11.046875 5.47265625 C10.03367187 5.23869141 10.03367187 5.23869141 9 5 C9 4.34 9 3.68 9 3 C6.03 2.67 3.06 2.34 0 2 C0 1.34 0 0.68 0 0 Z " fill="#C55222" transform="translate(560,295)"/>
<path d="M0 0 C0.66 0 1.32 0 2 0 C0.35433477 5.68502535 -2.29032784 10.76681636 -5 16 C-5.33 16 -5.66 16 -6 16 C-6.29296875 9.9453125 -6.29296875 9.9453125 -6 8 C-5.01 7.34 -4.02 6.68 -3 6 C-1.8499169 4.03327085 -1.8499169 4.03327085 -1 2 C-0.67 1.34 -0.34 0.68 0 0 Z " fill="#F8D5C0" transform="translate(329,694)"/>
<path d="M0 0 C0.66666667 1.33333333 1.33333333 2.66666667 2 4 C2.37125 4.680625 2.7425 5.36125 3.125 6.0625 C4 8 4 8 4 11 C3.34 11 2.68 11 2 11 C1.34 9.35 0.68 7.7 0 6 C-0.45375 6.825 -0.9075 7.65 -1.375 8.5 C-1.91125 9.325 -2.4475 10.15 -3 11 C-3.66 11 -4.32 11 -5 11 C-3.77472971 6.94718288 -2.30119506 3.55639236 0 0 Z " fill="#CC5621" transform="translate(356,645)"/>
<path d="M0 0 C2.31 0 4.62 0 7 0 C7.144375 0.763125 7.28875 1.52625 7.4375 2.3125 C7.9632594 5.08172908 7.9632594 5.08172908 9 8 C6.1875 7.375 6.1875 7.375 3 6 C1.125 2.875 1.125 2.875 0 0 Z " fill="#D55018" transform="translate(608,433)"/>
<path d="M0 0 C3.9252025 3.70090521 6.94580156 7.54959656 10 12 C9.01 12.495 9.01 12.495 8 13 C8 12.34 8 11.68 8 11 C6.68 10.67 5.36 10.34 4 10 C3.67 10.66 3.34 11.32 3 12 C1.57499941 8.00999834 0.59924224 4.19469571 0 0 Z " fill="#F6DAC9" transform="translate(600,424)"/>
<path d="M0 0 C0.66 0 1.32 0 2 0 C0.6077541 4.62675657 -1.29520984 8.64686231 -3.625 12.875 C-4.25664062 14.02742187 -4.88828125 15.17984375 -5.5390625 16.3671875 C-6.02117187 17.23601563 -6.50328125 18.10484375 -7 19 C-8.1171875 15.28125 -8.1171875 15.28125 -7.0625 12.75 C-6.711875 12.1725 -6.36125 11.595 -6 11 C-5.34 11 -4.68 11 -4 11 C-4.061875 10.236875 -4.12375 9.47375 -4.1875 8.6875 C-3.96487909 5.49660032 -3.31697562 5.03893855 -1 3 C-0.67 2.01 -0.34 1.02 0 0 Z " fill="#BF5629" transform="translate(353,605)"/>
<path d="M0 0 C0.66 0.33 1.32 0.66 2 1 C-0.64 5.95 -3.28 10.9 -6 16 C-7.25541557 12.23375329 -6.37061958 10.62811066 -5 7 C-4.34 7 -3.68 7 -3 7 C-3 5.68 -3 4.36 -3 3 C-1.5 1.25 -1.5 1.25 0 0 Z " fill="#C45327" transform="translate(703,592)"/>
<path d="M0 0 C0.97920084 3.41632293 0.80093488 5.52928219 0 9 C0 9.99 0 10.98 0 12 C-1.98 12.66 -3.96 13.32 -6 14 C-4.50829734 9.0276578 -2.39542583 4.58154261 0 0 Z " fill="#F5D9C4" transform="translate(332,650)"/>
<path d="M0 0 C1.07310858 3.27185553 0.89263102 5.42947592 0.0625 8.75 C-0.13214844 9.54921875 -0.32679688 10.3484375 -0.52734375 11.171875 C-0.76130859 12.07679688 -0.76130859 12.07679688 -1 13 C-1.99 12.67 -2.98 12.34 -4 12 C-4 12.66 -4 13.32 -4 14 C-4.66 14 -5.32 14 -6 14 C-4.50829734 9.0276578 -2.39542583 4.58154261 0 0 Z " fill="#CA592E" transform="translate(373,610)"/>
<path d="M0 0 C0.33 1.32 0.66 2.64 1 4 C0.01 4.495 0.01 4.495 -1 5 C-1.90343684 6.88263881 -1.90343684 6.88263881 -2.625 9.0625 C-3.01558594 10.16271484 -3.01558594 10.16271484 -3.4140625 11.28515625 C-3.60742188 11.85105469 -3.80078125 12.41695312 -4 13 C-4.99 13 -5.98 13 -7 13 C-5.58832253 7.73829306 -3.25149768 4.27828642 0 0 Z " fill="#F4D7C2" transform="translate(395,528)"/>
<path d="M0 0 C5.09210286 3.56320845 9.22660027 7.04741286 13 12 C12.01 12 11.02 12 10 12 C10 11.34 10 10.68 10 10 C8.68 9.34 7.36 8.68 6 8 C6 7.34 6 6.68 6 6 C4.35 6 2.7 6 1 6 C0.67 4.02 0.34 2.04 0 0 Z " fill="#C35229" transform="translate(649,339)"/>
<path d="M0 0 C0.66 0.99 1.32 1.98 2 3 C2.48597656 3.72316406 2.97195313 4.44632812 3.47265625 5.19140625 C3.99730469 5.97386719 4.52195312 6.75632812 5.0625 7.5625 C5.58972656 8.34753906 6.11695313 9.13257813 6.66015625 9.94140625 C8 12 8 12 9 14 C8.01 14 7.02 14 6 14 C5.34 12.35 4.68 10.7 4 9 C3.34 9 2.68 9 2 9 C1.67 8.34 1.34 7.68 1 7 C0.01 7.495 0.01 7.495 -1 8 C-0.67 5.36 -0.34 2.72 0 0 Z " fill="#C95B2F" transform="translate(499,486)"/>
<path d="M0 0 C0.66 0 1.32 0 2 0 C2.66 1.65 3.32 3.3 4 5 C3.67 5.33 3.34 5.66 3 6 C3.99 6.66 4.98 7.32 6 8 C3.69 8.33 1.38 8.66 -1 9 C-0.67 6.03 -0.34 3.06 0 0 Z " fill="#D44208" transform="translate(316,725)"/>
<path d="M0 0 C1.57012675 4.71038024 0.31745347 9.29480905 -1 14 C-1 13.34 -1 12.68 -1 12 C-2.32 12 -3.64 12 -5 12 C-3.68938409 7.76570244 -2.05643741 3.92592596 0 0 Z " fill="#C7501B" transform="translate(350,656)"/>
<path d="M0 0 C0.66 0 1.32 0 2 0 C0.45454854 5.47932789 -2.15543212 10.11429181 -5 15 C-6.2077558 11.37673261 -5.54311128 10.35853631 -4 7 C-3.34 7 -2.68 7 -2 7 C-1.855625 6.21625 -1.71125 5.4325 -1.5625 4.625 C-1 2 -1 2 0 0 Z " fill="#C35728" transform="translate(673,650)"/>
<path d="M0 0 C1.45606519 4.52092968 0.27032841 7.51648796 -1 12 C-2.32 12 -3.64 12 -5 12 C-3.68938409 7.76570244 -2.05643741 3.92592596 0 0 Z " fill="#F5DDCA" transform="translate(365,585)"/>
<path d="M0 0 C0.33 0 0.66 0 1 0 C0.46148032 5.27749285 -0.77343836 9.25645564 -3 14 C-3.99 14 -4.98 14 -6 14 C-4.50829734 9.0276578 -2.39542583 4.58154261 0 0 Z " fill="#F5D5C0" transform="translate(382,551)"/>
<path d="M0 0 C0 0.66 0 1.32 0 2 C0.556875 2.061875 1.11375 2.12375 1.6875 2.1875 C4.94987173 3.33373872 6.68667874 5.49390197 9 8 C5.29121726 7.3605547 5.29121726 7.3605547 3.6875 5.375 C1.88334311 3.5797574 1.88334311 3.5797574 -1.6875 4.3125 C-2.780625 4.539375 -3.87375 4.76625 -5 5 C-4.625 3.0625 -4.625 3.0625 -4 1 C-2 0 -2 0 0 0 Z " fill="#CF4B1C" transform="translate(505,498)"/>
<path d="M0 0 C2 1 4 2 6 3 C6 2.34 6 1.68 6 1 C6.99 1 7.98 1 9 1 C8.67 3.31 8.34 5.62 8 8 C3.79373966 6.49776416 2.26099979 3.71449966 0 0 Z " fill="#F0DDCA" transform="translate(506,497)"/>
<path d="M0 0 C1.63814448 2.45721672 2.61952199 4.34567811 3.625 7.0625 C3.88539063 7.75472656 4.14578125 8.44695312 4.4140625 9.16015625 C5 11 5 11 5 13 C4.34 13 3.68 13 3 13 C3 11.68 3 10.36 3 9 C1.68 9 0.36 9 -1 9 C-0.67 6.03 -0.34 3.06 0 0 Z " fill="#CE5E2C" transform="translate(710,423)"/>
<path d="M0 0 C2.29158942 2.89818662 4.07862366 5.83140544 5.75 9.125 C6.19859375 9.99382812 6.6471875 10.86265625 7.109375 11.7578125 C7.40328125 12.49773437 7.6971875 13.23765625 8 14 C7.67 14.66 7.34 15.32 7 16 C4.23376274 14.61688137 4.04597614 13.099163 2.9375 10.25 C2.59589844 9.38890625 2.25429688 8.5278125 1.90234375 7.640625 C1.0344672 5.10086505 0.46073358 2.64090587 0 0 Z " fill="#C85830" transform="translate(696,394)"/>
<path d="M0 0 C1.46067199 0.45082469 2.91848032 0.91093537 4.375 1.375 C5.18710937 1.63023437 5.99921875 1.88546875 6.8359375 2.1484375 C9 3 9 3 11 5 C9.1875 6.0625 9.1875 6.0625 7 7 C4 6 4 6 2 4 C2.33 3.34 2.66 2.68 3 2 C2.01 2 1.02 2 0 2 C0 1.34 0 0.68 0 0 Z " fill="#F3DED1" transform="translate(553,391)"/>
<path d="M0 0 C1.66611905 -0.042721 3.33382885 -0.04063832 5 0 C5.33 0.33 5.66 0.66 6 1 C8.28684338 1.2819396 10.57363273 1.44777005 12.87109375 1.62109375 C15 2 15 2 17 4 C10.54107286 4.40368295 5.93891422 3.5915262 0 1 C0 0.67 0 0.34 0 0 Z " fill="#F9D9C6" transform="translate(520,509)"/>
<path d="M0 0 C2.50298434 2.93828597 3.46930939 5.17902761 4 9 C3.01 9.495 3.01 9.495 2 10 C0.68373308 6.38026598 0 3.90432869 0 0 Z M-2 8 C-1.01 9.32 -0.02 10.64 1 12 C0.01 12.66 -0.98 13.32 -2 14 C-2 12.02 -2 10.04 -2 8 Z " fill="#CD5320" transform="translate(706,414)"/>
<path d="M0 0 C7.57142857 4.14285714 7.57142857 4.14285714 10 7 C8.02 7.99 8.02 7.99 6 9 C5.67 8.01 5.34 7.02 5 6 C4.34 5.690625 3.68 5.38125 3 5.0625 C1 4 1 4 0.25 1.875 C0.1675 1.25625 0.085 0.6375 0 0 Z " fill="#CC521D" transform="translate(624,321)"/>
<path d="M0 0 C0.99 0 1.98 0 3 0 C1.68938409 4.23429756 0.05643741 8.07407404 -2 12 C-2.66 11.67 -3.32 11.34 -4 11 C-4 10.34 -4 9.68 -4 9 C-3.34 9 -2.68 9 -2 9 C-2.33 7.35 -2.66 5.7 -3 4 C-2.01 4 -1.02 4 0 4 C0 2.68 0 1.36 0 0 Z " fill="#C6511B" transform="translate(309,689)"/>
<path d="M0 0 C2 3 2 3 1.625 5.6875 C1.41875 6.450625 1.2125 7.21375 1 8 C0.01 7.67 -0.98 7.34 -2 7 C-2 7.66 -2 8.32 -2 9 C-2.66 9 -3.32 9 -4 9 C-2.94124926 5.59687262 -1.99097846 2.98646769 0 0 Z " fill="#F2D9C9" transform="translate(664,672)"/>
<path d="M0 0 C0.66 0.66 1.32 1.32 2 2 C1.625 4.625 1.625 4.625 1 7 C0.01 7.33 -0.98 7.66 -2 8 C-2 8.66 -2 9.32 -2 10 C-2.66 10 -3.32 10 -4 10 C-2.8905928 6.51329166 -1.73662334 3.22515763 0 0 Z " fill="#F2D5BE" transform="translate(642,714)"/>
<path d="M0 0 C1.42944945 2.35438733 2.08661261 3.48032433 1.625 6.25 C1.41875 6.8275 1.2125 7.405 1 8 C0.01 8 -0.98 8 -2 8 C-2 8.66 -2 9.32 -2 10 C-2.66 10 -3.32 10 -4 10 C-2.8905928 6.51329166 -1.73662334 3.22515763 0 0 Z " fill="#F0D4BE" transform="translate(387,541)"/>
<path d="M0 0 C0.99 0 1.98 0 3 0 C6.20777053 4.8758112 6.14376388 8.35762615 5.51953125 13.92578125 C5.26236328 14.95251953 5.26236328 14.95251953 5 16 C4.34 16.33 3.68 16.66 3 17 C3.03480469 16.27554688 3.06960938 15.55109375 3.10546875 14.8046875 C3.26631949 9.06001832 3.23466184 4.98677034 0 0 Z " fill="#F6CFB5" transform="translate(721,538)"/>
<path d="M0 0 C0.66 0 1.32 0 2 0 C0.68938409 4.23429756 -0.94356259 8.07407404 -3 12 C-4.31223496 8.06329512 -3.24296256 5.87511856 -2 2 C-1.34 2 -0.68 2 0 2 C0 1.34 0 0.68 0 0 Z " fill="#F8D8C3" transform="translate(335,682)"/>
<path d="M0 0 C4.39381209 0.50214995 6.83419795 1.92213689 10 5 C10.640625 7.13671875 10.640625 7.13671875 11 9 C9.72689688 8.06558465 8.456612 7.12732889 7.1875 6.1875 C6.47980469 5.66542969 5.77210938 5.14335938 5.04296875 4.60546875 C3.21468607 3.16871123 1.60103312 1.68184237 0 0 Z " fill="#BE5629" transform="translate(713,535)"/>
<path d="M0 0 C-3.732388 3.57011026 -8.0949989 4.10913442 -13 5 C-4.9 -1.75 -4.9 -1.75 0 0 Z " fill="#F8D8C1" transform="translate(414,518)"/>
<path d="M0 0 C0 3.20395416 -0.74335022 5.09399739 -2 8 C-6 3.25 -6 3.25 -6 1 C-4.7934375 1.0309375 -4.7934375 1.0309375 -3.5625 1.0625 C-1.06645115 1.29633621 -1.06645115 1.29633621 0 0 Z " fill="#F1E4D5" transform="translate(699,386)"/>
<path d="M0 0 C0.99 0 1.98 0 3 0 C1.87548273 2.9719385 0.77706209 5.33440687 -1 8 C-1.66 8 -2.32 8 -3 8 C-3.33 7.01 -3.66 6.02 -4 5 C-3.01 5 -2.02 5 -1 5 C-0.67 3.35 -0.34 1.7 0 0 Z " fill="#C75521" transform="translate(636,720)"/>
<path d="M0 0 C0.66 0 1.32 0 2 0 C0.84414715 3.91211733 -0.35534962 6.8745041 -3 10 C-3.625 7.6875 -3.625 7.6875 -4 5 C-3.34 4.01 -2.68 3.02 -2 2 C-1.34 2 -0.68 2 0 2 C0 1.34 0 0.68 0 0 Z " fill="#F7D9C7" transform="translate(349,654)"/>
<path d="M0 0 C1.9375 0.8125 1.9375 0.8125 4 2 C4.33 2.99 4.66 3.98 5 5 C4.01 5.66 3.02 6.32 2 7 C1.01 6.67 0.02 6.34 -1 6 C-0.67 4.02 -0.34 2.04 0 0 Z " fill="#CD4E1C" transform="translate(683,377)"/>
<path d="M0 0 C1.14926266 0.95421808 2.29430541 1.91352045 3.4375 2.875 C4.07558594 3.40867187 4.71367188 3.94234375 5.37109375 4.4921875 C7 6 7 6 8 8 C7.34 8 6.68 8 6 8 C5.67 8.66 5.34 9.32 5 10 C4.16121545 8.71186658 3.32913217 7.41936744 2.5 6.125 C2.0359375 5.40570313 1.571875 4.68640625 1.09375 3.9453125 C0 2 0 2 0 0 Z " fill="#C6572C" transform="translate(664,353)"/>
<path d="M0 0 C0.33 0 0.66 0 1 0 C1.25 5.625 1.25 5.625 -1 9 C-1.66 9 -2.32 9 -3 9 C-2.5020163 5.26512223 -2.12508244 3.18762365 0 0 Z " fill="#BF4C1D" transform="translate(315,726)"/>
<path d="M0 0 C1.2456406 3.7369218 0.6963316 4.5265591 -1 8 C-2.29788956 10.02318078 -3.62464661 12.02866014 -5 14 C-5.33 13.34 -5.66 12.68 -6 12 C-4.78515625 9.1796875 -4.78515625 9.1796875 -3.0625 5.875 C-2.49660156 4.77929688 -1.93070312 3.68359375 -1.34765625 2.5546875 C-0.90292969 1.71164062 -0.45820313 0.86859375 0 0 Z " fill="#C44F24" transform="translate(344,668)"/>
<path d="M0 0 C1.46726798 3.81489674 0.43336419 6.29011622 -1 10 C-1.99 10 -2.98 10 -4 10 C-3.43454163 6.04179141 -2.19097652 3.3340947 0 0 Z " fill="#F7DAC5" transform="translate(669,662)"/>
<path d="M0 0 C1.14926266 0.95421808 2.29430541 1.91352045 3.4375 2.875 C4.07558594 3.40867187 4.71367188 3.94234375 5.37109375 4.4921875 C7 6 7 6 8 8 C6.35 8 4.7 8 3 8 C0 2.25 0 2.25 0 0 Z " fill="#F7DAC6" transform="translate(592,416)"/>
<path d="M0 0 C0.77321882 2.98241547 1.41196203 5.97580475 2 9 C0.35 9.33 -1.3 9.66 -3 10 C-3 6.13304322 -1.58090029 3.4911548 0 0 Z " fill="#CB5B29" transform="translate(362,632)"/>
<path d="M0 0 C2.2477975 2.05233685 3.0022242 3.00667261 4 6 C3.01 6 2.02 6 1 6 C0.67 7.32 0.34 8.64 0 10 C-0.66 9.67 -1.32 9.34 -2 9 C-1.67 8.443125 -1.34 7.88625 -1 7.3125 C0.1309601 4.69715478 0.15662974 2.8193354 0 0 Z " fill="#F3DECD" transform="translate(613,442)"/>
<path d="M0 0 C4 4.625 4 4.625 4 8 C3.34 8.66 2.68 9.32 2 10 C0.68373308 6.38026598 0 3.90432869 0 0 Z " fill="#D4582C" transform="translate(691,386)"/>
<path d="M0 0 C2.65614176 0.36969853 3.74758254 0.70475592 5.51953125 2.77734375 C5.94621094 3.49019531 6.37289062 4.20304687 6.8125 4.9375 C7.25207031 5.64777344 7.69164062 6.35804688 8.14453125 7.08984375 C8.42683594 7.72019531 8.70914063 8.35054688 9 9 C8.67 9.66 8.34 10.32 8 11 C6.66375099 9.35653302 5.33107149 7.71016314 4 6.0625 C3.2575 5.14597656 2.515 4.22945313 1.75 3.28515625 C0 1 0 1 0 0 Z " fill="#FAE1C6" transform="translate(671,359)"/>
<path d="M0 0 C0.99 0 1.98 0 3 0 C3.66 1.98 4.32 3.96 5 6 C4.401875 5.67 3.80375 5.34 3.1875 5 C0.94613529 3.79212012 0.94613529 3.79212012 -2 4 C-1.34 2.68 -0.68 1.36 0 0 Z " fill="#D24C1C" transform="translate(321,714)"/>
<path d="M0 0 C0.66 0.33 1.32 0.66 2 1 C0.68 3.64 -0.64 6.28 -2 9 C-2.33 9 -2.66 9 -3 9 C-3 6.36 -3 3.72 -3 1 C-2.01 0.67 -1.02 0.34 0 0 Z " fill="#C3511D" transform="translate(326,659)"/>
<path d="M0 0 C0.66 0.99 1.32 1.98 2 3 C1.67 3.99 1.34 4.98 1 6 C0.34 6 -0.32 6 -1 6 C-1 6.99 -1 7.98 -1 9 C-1.99 8.67 -2.98 8.34 -4 8 C-2.68 5.36 -1.36 2.72 0 0 Z " fill="#F5DAC8" transform="translate(704,593)"/>
<path d="M0 0 C1.98 0.495 1.98 0.495 4 1 C2.25 6.75 2.25 6.75 0 9 C-0.33 7.68 -0.66 6.36 -1 5 C-0.34 5 0.32 5 1 5 C0.67 3.35 0.34 1.7 0 0 Z " fill="#CA531D" transform="translate(708,576)"/>
<path d="M0 0 C4.29 0.66 8.58 1.32 13 2 C13 2.33 13 2.66 13 3 C8.71 3 4.42 3 0 3 C0 2.01 0 1.02 0 0 Z " fill="#AF603C" transform="translate(526,512)"/>
<path d="M0 0 C0.99 0.33 1.98 0.66 3 1 C2.01 2.485 2.01 2.485 1 4 C0.34 4 -0.32 4 -1 4 C-1.33 4.99 -1.66 5.98 -2 7 C-3.32 6.01 -4.64 5.02 -6 4 C-4.68 4 -3.36 4 -2 4 C-2 3.34 -2 2.68 -2 2 C-1.34 2 -0.68 2 0 2 C0 1.34 0 0.68 0 0 Z " fill="#EFE3D2" transform="translate(619,310)"/>
<path d="M0 0 C1.8871875 0.0309375 1.8871875 0.0309375 3.8125 0.0625 C0.80632731 3.06867269 -2.01131598 2.65835316 -6.1875 3.0625 C-6.5175 2.4025 -6.8475 1.7425 -7.1875 1.0625 C-4.43671116 0.14557039 -2.82801087 -0.04636083 0 0 Z " fill="#EEE3E9" transform="translate(564.1875,289.9375)"/>
<path d="M0 0 C0.66 0.33 1.32 0.66 2 1 C0.7508258 4.45925163 -0.67527795 7.14693203 -3 10 C-2.88637738 8.5199159 -2.75877092 7.04089926 -2.625 5.5625 C-2.55539062 4.73878906 -2.48578125 3.91507813 -2.4140625 3.06640625 C-2.27742188 2.38449219 -2.14078125 1.70257812 -2 1 C-1.34 0.67 -0.68 0.34 0 0 Z " fill="#F7D8C3" transform="translate(315,721)"/>
<path d="M0 0 C1.65 0 3.3 0 5 0 C3.515 3.465 3.515 3.465 2 7 C0 4 0 4 0 0 Z " fill="#F5D8C1" transform="translate(341,665)"/>
<path d="M0 0 C7.50769231 0.61538462 7.50769231 0.61538462 10 2.5625 C10.33 3.036875 10.66 3.51125 11 4 C6.32674845 4 4.17640953 2.92757363 0 1 C0 0.67 0 0.34 0 0 Z " fill="#C0562D" transform="translate(557,392)"/>
<path d="M0 0 C0.33 0 0.66 0 1 0 C1.3636198 4.24223102 0.5393228 6.58168085 -2 10 C-2.66 10 -3.32 10 -4 10 C-2.8905928 6.51329166 -1.73662334 3.22515763 0 0 Z " fill="#F6D6BC" transform="translate(656,687)"/>
<path d="M0 0 C2.64 0 5.28 0 8 0 C6.3125 1.5625 6.3125 1.5625 4 3 C1.25 2.6875 1.25 2.6875 -1 2 C-0.67 1.34 -0.34 0.68 0 0 Z " fill="#C54E22" transform="translate(620,732)"/>
<path d="M0 0 C0.66 0.33 1.32 0.66 2 1 C0.68 3.31 -0.64 5.62 -2 8 C-2.99 7.67 -3.98 7.34 -5 7 C-4.34 7 -3.68 7 -3 7 C-3 5.68 -3 4.36 -3 3 C-1.5 1.25 -1.5 1.25 0 0 Z " fill="#F8E4D5" transform="translate(363,627)"/>
<path d="M0 0 C0.66 0 1.32 0 2 0 C0.125 5.75 0.125 5.75 -1 8 C-1.66 8 -2.32 8 -3 8 C-3 6.68 -3 5.36 -3 4 C-2.34 4 -1.68 4 -1 4 C-0.67 2.68 -0.34 1.36 0 0 Z " fill="#F5DBC0" transform="translate(300,464)"/>
<path d="M0 0 C-0.75 6.75 -0.75 6.75 -3 9 C-3 6.36 -3 3.72 -3 1 C-1 0 -1 0 0 0 Z " fill="#F3DECB" transform="translate(326,701)"/>
<path d="M0 0 C0.6875 1.625 0.6875 1.625 1 4 C-0.4375 7.25 -0.4375 7.25 -2 10 C-2.33 10 -2.66 10 -3 10 C-3 8.02 -3 6.04 -3 4 C-2.34 3.67 -1.68 3.34 -1 3 C-0.67 2.01 -0.34 1.02 0 0 Z " fill="#FBDFCE" transform="translate(377,598)"/>
<path d="M0 0 C0.99 0 1.98 0 3 0 C2.67 1.32 2.34 2.64 2 4 C0.68 4.33 -0.64 4.66 -2 5 C-1.34 3.35 -0.68 1.7 0 0 Z " fill="#E0EBD7" transform="translate(405,532)"/>
<path d="M0 0 C-2.97 2.475 -2.97 2.475 -6 5 C-6 3.35 -6 1.7 -6 0 C-2.25 -1.125 -2.25 -1.125 0 0 Z " fill="#F7D9C0" transform="translate(309,458)"/>
</svg>
